<?xml version="1.0" encoding="UTF-8"?>
<svg id="Layer_1" xmlns="http://www.w3.org/2000/svg" version="1.1" viewBox="0 0 261.88 90">
  <!-- Generator: Adobe Illustrator 29.8.2, SVG Export Plug-In . SVG Version: 2.1.1 Build 3)  -->
  <defs>
    <style>
      .st0 {
        fill: #4d94b6;
      }

      .st1 {
        fill: #0b3d61;
      }

      .st2 {
        fill: #4a90b4;
      }

      .st3 {
        fill: #4b91b5;
      }

      .st4 {
        fill: #fcfaf9;
      }
    </style>
  </defs>
  <g>
    <path class="st1" d="M99.54,24.53s.48-19.29-23.33-23.81-39.76,13.81-39.76,13.81c0,0-10.35,10.28-19.3,30.65h-4.72v11.18h10.44v11.31h7.45v10.56h8.2s13.54,11.06,29.32,11.68c15.78.62,37.62-1.21,51.18-25.22-3.11,2.48-12.17,8.57-22.36,10.19-10.19,1.62-23.98-1.37-34.16-12.67-10.19-11.31-6.34-29.07-4.22-32.67s8.2-15.16,21.74-15.28,19.54,10.28,19.54,10.28Z"/>
    <polygon class="st4" points="30.44 36.24 40.62 36.24 40.62 46.18 30.56 46.18 30.44 36.24"/>
    <polygon class="st4" points="30.44 56.61 40.5 56.61 40.5 67.67 30.31 67.67 30.44 56.61"/>
    <polygon class="st1" points="12.42 56.36 12.42 67.54 0 67.54 0 56.49 12.42 56.36"/>
    <path class="st1" d="M12.42,67.54"/>
    <polygon class="st1" points="22.77 78.1 12.52 78.1 12.52 67.85 22.86 67.85 22.77 78.1"/>
    <polygon class="st0" points="23.51 78.57 33.01 78.57 33.01 88.35 23.42 88.35 23.51 78.57"/>
    <path class="st3" d="M123.67,48.47s-4.63,16.56-21.34,19.85c-17.69,3.47-27.56-7.15-27.56-7.15,0,0-8.51-6.83-5.98-22.29,2.12-12.97,15.84-16.77,15.84-16.77,0,0,5.96-1.68,13.23,1.21,0,0-16.4-2.33-16.77,14.91-.37,17.24,17.42,19.66,17.42,19.66,0,0,14.16,3.45,25.16-9.41Z"/>
    <path class="st2" d="M119.01,64.69s-9.32,21.9-37.64,21.52c-28.32-.37-40.62-17.14-40.62-17.14l-.56-1.58s6.89-.09,10.99,1.4,13.7,7.03,25.25,7.77c11.55.75,17.8-.65,17.8-.65,0,0,15.38-3.36,24.78-11.32Z"/>
  </g>
  <g>
    <path class="st1" d="M141.76,41.87v-12.75h5.97c2.77,0,4.28,1.87,4.28,4.11s-1.53,4.11-4.28,4.11h-3.25v4.53h-2.72ZM149.24,33.22c0-1.07-.8-1.72-1.87-1.72h-2.89v3.44h2.89c1.07,0,1.87-.67,1.87-1.72Z"/>
    <path class="st1" d="M153.09,35.5c0-3.84,2.81-6.6,6.65-6.6s6.67,2.75,6.67,6.6-2.81,6.6-6.67,6.6-6.65-2.75-6.65-6.6ZM163.62,35.5c0-2.39-1.53-4.19-3.88-4.19s-3.86,1.8-3.86,4.19,1.51,4.19,3.86,4.19,3.88-1.82,3.88-4.19Z"/>
    <path class="st1" d="M179.42,41.87v-8.93l-3.59,8.93h-1.19l-3.59-8.93v8.93h-2.72v-12.75h3.81l3.1,7.71,3.1-7.71h3.82v12.75h-2.73Z"/>
    <path class="st1" d="M184.06,35.5c0-3.84,2.81-6.6,6.65-6.6s6.67,2.75,6.67,6.6-2.81,6.6-6.67,6.6-6.65-2.75-6.65-6.6ZM194.6,35.5c0-2.39-1.53-4.19-3.88-4.19s-3.86,1.8-3.86,4.19,1.51,4.19,3.86,4.19,3.88-1.82,3.88-4.19Z"/>
    <path class="st1" d="M206.51,41.87l-2.51-4.53h-1.99v4.53h-2.72v-12.75h5.97c2.66,0,4.28,1.74,4.28,4.11s-1.41,3.46-2.79,3.79l2.87,4.86h-3.12ZM206.78,33.22c0-1.07-.82-1.72-1.91-1.72h-2.85v3.44h2.85c1.09,0,1.91-.65,1.91-1.72Z"/>
    <path class="st1" d="M219.17,41.87l-3.86-5.11-.99,1.19v3.92h-2.72v-12.75h2.72v5.7l4.51-5.7h3.35l-5.07,5.99,5.41,6.77h-3.35Z"/>
    <path class="st1" d="M223.76,41.87v-12.75h2.72v12.75h-2.72Z"/>
    <path class="st1" d="M237.8,41.87l-6.08-8.32v8.32h-2.72v-12.75h2.79l5.91,8.01v-8.01h2.72v12.75h-2.62Z"/>
    <path class="st1" d="M241.79,40.85l1.19-2.08c.5.48,1.15.92,2.03.92,1.2,0,1.99-.8,1.99-2.05v-8.53h2.72v8.57c0,3.02-1.87,4.42-4.49,4.42-1.28,0-2.51-.34-3.42-1.24Z"/>
    <path class="st1" d="M252.24,41.87v-12.75h9.03v2.39h-6.31v2.7h6.18v2.39h-6.18v2.89h6.31v2.39h-9.03Z"/>
  </g>
  <g>
    <path class="st3" d="M148.63,59.26v-2.97h-6.87v-2.41l5.71-8.98h4.22v8.7h1.85v2.69h-1.85v2.97h-3.06ZM148.63,47.62l-3.88,5.99h3.88v-5.99Z"/>
    <path class="st3" d="M155.09,57.76c0-.95.8-1.74,1.74-1.74s1.74.8,1.74,1.74-.8,1.74-1.74,1.74-1.74-.8-1.74-1.74Z"/>
    <path class="st3" d="M159.87,52.09c0-3.7,1.83-7.41,5.94-7.41s5.94,3.7,5.94,7.41-1.85,7.43-5.94,7.43-5.94-3.72-5.94-7.43ZM168.63,52.09c0-2.65-.78-4.69-2.82-4.69s-2.84,2.05-2.84,4.69.78,4.71,2.84,4.71,2.82-2.07,2.82-4.71Z"/>
  </g>
</svg>