<?xml version="1.0" encoding="UTF-8"?>
<svg id="Layer_1" xmlns="http://www.w3.org/2000/svg" version="1.1" viewBox="0 0 261.88 90">
  <!-- Generator: Adobe Illustrator 29.8.2, SVG Export Plug-In . SVG Version: 2.1.1 Build 3)  -->
  <defs>
    <style>
      .st0 {
        fill: #4d94b6;
      }

      .st1 {
        fill: #0b3d61;
      }

      .st2 {
        fill: #4a90b4;
      }

      .st3 {
        fill: #4b91b5;
      }

      .st4 {
        fill: #fcfaf9;
      }
    </style>
  </defs>
  <g>
    <path class="st1" d="M99.54,24.53s.48-19.29-23.33-23.81-39.76,13.81-39.76,13.81c0,0-10.35,10.28-19.3,30.65h-4.72v11.18h10.44v11.31h7.45v10.56h8.2s13.54,11.06,29.32,11.68c15.78.62,37.62-1.21,51.18-25.22-3.11,2.48-12.17,8.57-22.36,10.19-10.19,1.62-23.98-1.37-34.16-12.67-10.19-11.31-6.34-29.07-4.22-32.67s8.2-15.16,21.74-15.28,19.54,10.28,19.54,10.28Z"/>
    <polygon class="st4" points="30.44 36.24 40.62 36.24 40.62 46.18 30.56 46.18 30.44 36.24"/>
    <polygon class="st4" points="30.44 56.61 40.5 56.61 40.5 67.67 30.31 67.67 30.44 56.61"/>
    <polygon class="st1" points="12.42 56.36 12.42 67.54 0 67.54 0 56.49 12.42 56.36"/>
    <path class="st1" d="M12.42,67.54"/>
    <polygon class="st1" points="22.77 78.1 12.52 78.1 12.52 67.85 22.86 67.85 22.77 78.1"/>
    <polygon class="st0" points="23.51 78.57 33.01 78.57 33.01 88.35 23.42 88.35 23.51 78.57"/>
    <path class="st3" d="M123.67,48.47s-4.63,16.56-21.34,19.85c-17.69,3.47-27.56-7.15-27.56-7.15,0,0-8.51-6.83-5.98-22.29,2.12-12.97,15.84-16.77,15.84-16.77,0,0,5.96-1.68,13.23,1.21,0,0-16.4-2.33-16.77,14.91-.37,17.24,17.42,19.66,17.42,19.66,0,0,14.16,3.45,25.16-9.41Z"/>
    <path class="st2" d="M119.01,64.69s-9.32,21.9-37.64,21.52c-28.32-.37-40.62-17.14-40.62-17.14l-.56-1.58s6.89-.09,10.99,1.4,13.7,7.03,25.25,7.77c11.55.75,17.8-.65,17.8-.65,0,0,15.38-3.36,24.78-11.32Z"/>
  </g>
  <g>
    <path class="st1" d="M154.51,32.86l-2.59-10.15-2.57,10.15h-3.35l-4.23-14.78h3.52l2.59,10.68,2.81-10.68h2.46l2.79,10.68,2.57-10.68h3.55l-4.21,14.78h-3.35Z"/>
    <path class="st1" d="M163.55,25.48c0-4.45,3.26-7.65,7.71-7.65s7.73,3.19,7.73,7.65-3.26,7.65-7.73,7.65-7.71-3.19-7.71-7.65ZM175.76,25.48c0-2.77-1.77-4.85-4.5-4.85s-4.48,2.08-4.48,4.85,1.75,4.85,4.48,4.85,4.5-2.11,4.5-4.85Z"/>
    <path class="st1" d="M194.78,32.86v-10.35l-4.17,10.35h-1.37l-4.17-10.35v10.35h-3.15v-14.78h4.41l3.59,8.93,3.59-8.93h4.43v14.78h-3.17Z"/>
    <path class="st1" d="M201.58,32.86v-14.78h10.46v2.77h-7.31v3.12h7.16v2.77h-7.16v3.35h7.31v2.77h-10.46Z"/>
    <path class="st1" d="M225.4,32.86l-7.05-9.64v9.64h-3.15v-14.78h3.24l6.85,9.29v-9.29h3.15v14.78h-3.04Z"/>
  </g>
  <g>
    <path class="st1" d="M141.76,50.22l1.71-2.39c1.04,1.09,2.66,1.99,4.7,1.99,1.73,0,2.57-.8,2.57-1.64,0-2.62-8.51-.82-8.51-6.38,0-2.46,2.13-4.5,5.61-4.5,2.35,0,4.3.71,5.76,2.06l-1.75,2.3c-1.2-1.11-2.79-1.62-4.3-1.62-1.35,0-2.11.6-2.11,1.48,0,2.35,8.49.78,8.49,6.29,0,2.7-1.93,4.74-5.92,4.74-2.84,0-4.88-.95-6.25-2.35Z"/>
    <path class="st1" d="M155.73,52.3v-14.78h10.46v2.77h-7.31v3.12h7.16v2.77h-7.16v3.35h7.31v2.77h-10.46Z"/>
    <path class="st1" d="M178.51,52.3l-.91-2.5h-6.34l-.93,2.5h-3.59l5.72-14.78h3.94l5.7,14.78h-3.59ZM174.43,40.66l-2.3,6.36h4.61l-2.3-6.36Z"/>
    <path class="st1" d="M183.14,52.3v-14.78h10.46v2.77h-7.31v3.12h7.16v2.77h-7.16v6.12h-3.15Z"/>
    <path class="st1" d="M205.66,52.3l-.91-2.5h-6.34l-.93,2.5h-3.59l5.72-14.78h3.94l5.7,14.78h-3.59ZM201.58,40.66l-2.3,6.36h4.61l-2.3-6.36Z"/>
    <path class="st1" d="M218.64,52.3l-2.9-5.25h-2.3v5.25h-3.15v-14.78h6.91c3.08,0,4.96,2.02,4.96,4.76s-1.64,4.01-3.24,4.39l3.32,5.63h-3.61ZM218.95,42.28c0-1.24-.95-1.99-2.22-1.99h-3.3v3.99h3.3c1.26,0,2.22-.75,2.22-1.99Z"/>
    <path class="st1" d="M224.21,52.3v-14.78h10.46v2.77h-7.31v3.12h7.16v2.77h-7.16v3.35h7.31v2.77h-10.46Z"/>
    <path class="st1" d="M245.15,52.3l-2.9-5.25h-2.3v5.25h-3.15v-14.78h6.91c3.08,0,4.96,2.02,4.96,4.76s-1.64,4.01-3.24,4.39l3.32,5.63h-3.61ZM245.46,42.28c0-1.24-.95-1.99-2.22-1.99h-3.3v3.99h3.3c1.26,0,2.22-.75,2.22-1.99Z"/>
    <path class="st1" d="M249.72,50.22l1.71-2.39c1.04,1.09,2.66,1.99,4.7,1.99,1.73,0,2.57-.8,2.57-1.64,0-2.62-8.51-.82-8.51-6.38,0-2.46,2.13-4.5,5.61-4.5,2.35,0,4.3.71,5.76,2.06l-1.75,2.3c-1.2-1.11-2.79-1.62-4.3-1.62-1.35,0-2.11.6-2.11,1.48,0,2.35,8.49.78,8.49,6.29,0,2.7-1.93,4.74-5.92,4.74-2.84,0-4.88-.95-6.25-2.35Z"/>
  </g>
  <g>
    <path class="st2" d="M148.83,71.9v-3.06h-7.07v-2.48l5.87-9.24h4.34v8.95h1.91v2.77h-1.91v3.06h-3.15ZM148.83,59.91l-3.99,6.16h3.99v-6.16Z"/>
    <path class="st2" d="M154.97,70.35c0-.98.82-1.8,1.8-1.8s1.8.82,1.8,1.8-.82,1.79-1.8,1.79-1.8-.82-1.8-1.79Z"/>
    <path class="st2" d="M159.85,64.52c0-3.81,1.88-7.62,6.12-7.62s6.12,3.81,6.12,7.62-1.91,7.65-6.12,7.65-6.12-3.83-6.12-7.65ZM168.87,64.52c0-2.73-.8-4.83-2.9-4.83s-2.93,2.11-2.93,4.83.8,4.85,2.93,4.85,2.9-2.13,2.9-4.85Z"/>
  </g>
</svg>