<?xml version="1.0" encoding="UTF-8"?>
<svg id="Layer_1" xmlns="http://www.w3.org/2000/svg" version="1.1" viewBox="0 0 115.1 90">
  <!-- Generator: Adobe Illustrator 29.8.2, SVG Export Plug-In . SVG Version: 2.1.1 Build 3)  -->
  <defs>
    <style>
      .st0 {
        fill: #4d94b6;
      }

      .st1 {
        fill: #0b3d61;
      }

      .st2 {
        fill: #4a90b4;
      }

      .st3 {
        fill: #4b91b5;
      }

      .st4 {
        fill: #fcfaf9;
      }
    </style>
  </defs>
  <path class="st1" d="M82.79,14.05s.27-11.05-13.37-13.64c-13.64-2.59-22.78,7.91-22.78,7.91,0,0-5.93,5.89-11.06,17.56h-2.7v6.41h5.98v6.48h4.27v6.05h4.7s7.76,6.34,16.8,6.69,21.55-.69,29.33-14.45c-1.78,1.42-6.98,4.91-12.81,5.84s-13.74-.78-19.58-7.26-3.63-16.66-2.42-18.72,4.7-8.68,12.46-8.76,11.19,5.89,11.19,5.89Z"/>
  <polygon class="st4" points="43.19 20.76 49.03 20.76 49.03 26.46 43.26 26.46 43.19 20.76"/>
  <polygon class="st4" points="43.19 32.44 48.96 32.44 48.96 38.77 43.12 38.77 43.19 32.44"/>
  <polygon class="st1" points="32.87 32.3 32.87 38.7 25.75 38.7 25.75 32.37 32.87 32.3"/>
  <path class="st1" d="M32.87,38.7"/>
  <polygon class="st1" points="38.8 44.75 32.92 44.75 32.92 38.88 38.85 38.88 38.8 44.75"/>
  <polygon class="st0" points="39.22 45.02 44.67 45.02 44.67 50.62 39.17 50.62 39.22 45.02"/>
  <path class="st3" d="M96.61,27.78s-2.65,9.49-12.23,11.37c-10.13,1.99-15.79-4.1-15.79-4.1,0,0-4.88-3.92-3.43-12.77,1.22-7.43,9.08-9.61,9.08-9.61,0,0,3.42-.96,7.58.69,0,0-9.4-1.33-9.61,8.54s9.98,11.26,9.98,11.26c0,0,8.11,1.98,14.41-5.39Z"/>
  <path class="st2" d="M93.95,37.06s-5.34,12.55-21.57,12.33-23.28-9.82-23.28-9.82l-.32-.91s3.95-.05,6.3.8,7.85,4.03,14.47,4.45,10.2-.37,10.2-.37c0,0,8.81-1.93,14.2-6.48Z"/>
  <g>
    <path class="st1" d="M0,72.99v-12.28h5.75c2.67,0,4.13,1.8,4.13,3.96s-1.47,3.96-4.13,3.96h-3.13v4.37H0ZM7.2,64.67c0-1.03-.77-1.66-1.8-1.66h-2.78v3.32h2.78c1.03,0,1.8-.64,1.8-1.66Z"/>
    <path class="st1" d="M10.9,66.86c0-3.7,2.71-6.35,6.41-6.35s6.43,2.65,6.43,6.35-2.71,6.35-6.43,6.35-6.41-2.65-6.41-6.35ZM21.05,66.86c0-2.3-1.47-4.03-3.74-4.03s-3.72,1.73-3.72,4.03,1.45,4.03,3.72,4.03,3.74-1.75,3.74-4.03Z"/>
    <path class="st1" d="M36.27,72.99v-8.6l-3.46,8.6h-1.14l-3.46-8.6v8.6h-2.62v-12.28h3.67l2.98,7.42,2.98-7.42h3.68v12.28h-2.63Z"/>
    <path class="st1" d="M40.74,66.86c0-3.7,2.71-6.35,6.41-6.35s6.43,2.65,6.43,6.35-2.71,6.35-6.43,6.35-6.41-2.65-6.41-6.35ZM50.89,66.86c0-2.3-1.47-4.03-3.74-4.03s-3.72,1.73-3.72,4.03,1.45,4.03,3.72,4.03,3.74-1.75,3.74-4.03Z"/>
    <path class="st1" d="M62.36,72.99l-2.41-4.37h-1.92v4.37h-2.62v-12.28h5.75c2.56,0,4.13,1.68,4.13,3.96s-1.36,3.33-2.69,3.65l2.76,4.68h-3ZM62.62,64.67c0-1.03-.79-1.66-1.84-1.66h-2.74v3.32h2.74c1.05,0,1.84-.63,1.84-1.66Z"/>
    <path class="st1" d="M74.56,72.99l-3.72-4.92-.96,1.14v3.78h-2.62v-12.28h2.62v5.49l4.35-5.49h3.22l-4.88,5.76,5.21,6.52h-3.22Z"/>
    <path class="st1" d="M78.98,72.99v-12.28h2.62v12.28h-2.62Z"/>
    <path class="st1" d="M92.5,72.99l-5.86-8.01v8.01h-2.62v-12.28h2.69l5.69,7.72v-7.72h2.62v12.28h-2.52Z"/>
    <path class="st1" d="M96.35,72.02l1.14-2.01c.48.46,1.11.88,1.95.88,1.16,0,1.92-.77,1.92-1.97v-8.21h2.62v8.25c0,2.91-1.8,4.25-4.33,4.25-1.23,0-2.41-.33-3.3-1.2Z"/>
    <path class="st1" d="M106.4,72.99v-12.28h8.69v2.3h-6.08v2.6h5.95v2.3h-5.95v2.78h6.08v2.3h-8.69Z"/>
  </g>
  <g>
    <path class="st3" d="M49.72,89.75v-2.86h-6.62v-2.32l5.5-8.65h4.06v8.38h1.78v2.59h-1.78v2.86h-2.94ZM49.72,78.53l-3.73,5.76h3.73v-5.76Z"/>
    <path class="st3" d="M55.94,88.3c0-.91.77-1.68,1.68-1.68s1.68.77,1.68,1.68-.77,1.68-1.68,1.68-1.68-.77-1.68-1.68Z"/>
    <path class="st3" d="M60.54,82.85c0-3.57,1.76-7.13,5.72-7.13s5.72,3.57,5.72,7.13-1.78,7.15-5.72,7.15-5.72-3.59-5.72-7.15ZM68.98,82.85c0-2.55-.75-4.52-2.72-4.52s-2.74,1.97-2.74,4.52.75,4.54,2.74,4.54,2.72-1.99,2.72-4.54Z"/>
  </g>
</svg>