<?xml version="1.0" encoding="UTF-8"?>
<svg id="Layer_1" xmlns="http://www.w3.org/2000/svg" version="1.1" viewBox="0 0 88.73 90">
  <!-- Generator: Adobe Illustrator 29.8.2, SVG Export Plug-In . SVG Version: 2.1.1 Build 3)  -->
  <defs>
    <style>
      .st0 {
        fill: #4d94b6;
      }

      .st1 {
        fill: #0b3d61;
      }

      .st2 {
        fill: #4a90b4;
      }

      .st3 {
        fill: #4b91b5;
      }

      .st4 {
        fill: #fcfaf9;
      }
    </style>
  </defs>
  <path class="st1" d="M64.69,11.88s.23-9.34-11.3-11.53-19.25,6.69-19.25,6.69c0,0-5.01,4.98-9.34,14.84h-2.29v5.41h5.05v5.47h3.61v5.11h3.97s6.56,5.35,14.2,5.65,18.21-.59,24.78-12.21c-1.5,1.2-5.89,4.15-10.83,4.93s-11.61-.66-16.54-6.14-3.07-14.07-2.05-15.82,3.97-7.34,10.53-7.4,9.46,4.98,9.46,4.98Z"/>
  <polygon class="st4" points="31.23 17.55 36.16 17.55 36.16 22.36 31.29 22.36 31.23 17.55"/>
  <polygon class="st4" points="31.23 27.41 36.1 27.41 36.1 32.76 31.17 32.76 31.23 27.41"/>
  <polygon class="st1" points="22.51 27.29 22.51 32.7 16.49 32.7 16.49 27.35 22.51 27.29"/>
  <path class="st1" d="M22.51,32.7"/>
  <polygon class="st1" points="27.52 37.82 22.55 37.82 22.55 32.85 27.56 32.85 27.52 37.82"/>
  <polygon class="st0" points="27.88 38.04 32.48 38.04 32.48 42.78 27.83 42.78 27.88 38.04"/>
  <path class="st3" d="M76.37,23.47s-2.24,8.02-10.33,9.61c-8.56,1.68-13.35-3.46-13.35-3.46,0,0-4.12-3.31-2.89-10.79,1.03-6.28,7.67-8.12,7.67-8.12,0,0,2.89-.81,6.41.59,0,0-7.94-1.13-8.12,7.22s8.44,9.52,8.44,9.52c0,0,6.86,1.67,12.18-4.56Z"/>
  <path class="st2" d="M74.12,31.32s-4.51,10.6-18.23,10.42-19.67-8.3-19.67-8.3l-.27-.77s3.34-.05,5.32.68,6.63,3.4,12.23,3.76,8.62-.32,8.62-.32c0,0,7.45-1.63,12-5.48Z"/>
  <g>
    <path class="st1" d="M21.97,60.96l-1.92-7.5-1.9,7.5h-2.47l-3.13-10.92h2.6l1.92,7.89,2.08-7.89h1.82l2.06,7.89,1.9-7.89h2.62l-3.11,10.92h-2.47Z"/>
    <path class="st1" d="M28.65,55.51c0-3.29,2.41-5.65,5.7-5.65s5.71,2.36,5.71,5.65-2.41,5.65-5.71,5.65-5.7-2.36-5.7-5.65ZM37.67,55.51c0-2.05-1.31-3.59-3.32-3.59s-3.31,1.54-3.31,3.59,1.29,3.59,3.31,3.59,3.32-1.56,3.32-3.59Z"/>
    <path class="st1" d="M51.72,60.96v-7.64l-3.08,7.64h-1.01l-3.08-7.64v7.64h-2.32v-10.92h3.26l2.65,6.6,2.65-6.6h3.27v10.92h-2.34Z"/>
    <path class="st1" d="M56.74,60.96v-10.92h7.73v2.05h-5.4v2.31h5.29v2.05h-5.29v2.47h5.4v2.05h-7.73Z"/>
    <path class="st1" d="M74.34,60.96l-5.21-7.12v7.12h-2.32v-10.92h2.39l5.06,6.86v-6.86h2.32v10.92h-2.24Z"/>
  </g>
  <g>
    <path class="st1" d="M0,73.78l1.26-1.77c.77.8,1.96,1.47,3.47,1.47,1.28,0,1.9-.59,1.9-1.21,0-1.93-6.29-.61-6.29-4.71,0-1.82,1.57-3.32,4.14-3.32,1.74,0,3.18.52,4.26,1.52l-1.29,1.7c-.88-.82-2.06-1.2-3.18-1.2-1,0-1.56.44-1.56,1.1,0,1.74,6.27.57,6.27,4.65,0,2-1.42,3.5-4.37,3.5-2.1,0-3.6-.7-4.62-1.74Z"/>
    <path class="st1" d="M10.31,75.32v-10.92h7.73v2.05h-5.4v2.31h5.29v2.05h-5.29v2.47h5.4v2.05h-7.73Z"/>
    <path class="st1" d="M27.14,75.32l-.67-1.85h-4.68l-.69,1.85h-2.65l4.22-10.92h2.91l4.21,10.92h-2.65ZM24.13,66.73l-1.7,4.7h3.41l-1.7-4.7Z"/>
    <path class="st1" d="M30.56,75.32v-10.92h7.73v2.05h-5.4v2.31h5.29v2.05h-5.29v4.52h-2.32Z"/>
    <path class="st1" d="M47.2,75.32l-.67-1.85h-4.68l-.69,1.85h-2.65l4.22-10.92h2.91l4.21,10.92h-2.65ZM44.18,66.73l-1.7,4.7h3.4l-1.7-4.7Z"/>
    <path class="st1" d="M56.79,75.32l-2.14-3.88h-1.7v3.88h-2.32v-10.92h5.11c2.28,0,3.67,1.49,3.67,3.52s-1.21,2.96-2.39,3.24l2.46,4.16h-2.67ZM57.02,67.92c0-.92-.7-1.47-1.64-1.47h-2.44v2.95h2.44c.93,0,1.64-.56,1.64-1.47Z"/>
    <path class="st1" d="M60.9,75.32v-10.92h7.73v2.05h-5.4v2.31h5.29v2.05h-5.29v2.47h5.4v2.05h-7.73Z"/>
    <path class="st1" d="M76.37,75.32l-2.14-3.88h-1.7v3.88h-2.32v-10.92h5.11c2.28,0,3.67,1.49,3.67,3.52s-1.21,2.96-2.39,3.24l2.46,4.16h-2.67ZM76.6,67.92c0-.92-.7-1.47-1.64-1.47h-2.44v2.95h2.44c.93,0,1.64-.56,1.64-1.47Z"/>
    <path class="st1" d="M79.74,73.78l1.26-1.77c.77.8,1.96,1.47,3.47,1.47,1.28,0,1.9-.59,1.9-1.21,0-1.93-6.29-.61-6.29-4.71,0-1.82,1.57-3.32,4.14-3.32,1.74,0,3.18.52,4.26,1.52l-1.29,1.7c-.88-.82-2.06-1.2-3.18-1.2-1,0-1.56.44-1.56,1.1,0,1.74,6.27.57,6.27,4.65,0,2-1.42,3.5-4.37,3.5-2.1,0-3.6-.7-4.62-1.74Z"/>
  </g>
  <g>
    <path class="st2" d="M38.34,89.8v-2.26h-5.22v-1.83l4.34-6.83h3.21v6.61h1.41v2.05h-1.41v2.26h-2.32ZM38.34,80.95l-2.95,4.55h2.95v-4.55Z"/>
    <path class="st2" d="M42.87,88.66c0-.72.61-1.33,1.33-1.33s1.33.61,1.33,1.33-.61,1.33-1.33,1.33-1.33-.61-1.33-1.33Z"/>
    <path class="st2" d="M46.48,84.35c0-2.82,1.39-5.63,4.52-5.63s4.52,2.82,4.52,5.63-1.41,5.65-4.52,5.65-4.52-2.83-4.52-5.65ZM53.14,84.35c0-2.01-.59-3.57-2.14-3.57s-2.16,1.56-2.16,3.57.59,3.59,2.16,3.59,2.14-1.57,2.14-3.59Z"/>
  </g>
</svg>